<svg viewBox="0 0 36 36" version="1.1"
    xmlns="http://www.w3.org/2000/svg"
    xmlns:xlink="http://www.w3.org/1999/xlink" xml:space="preserve"
    xmlns:serif="http://www.serif.com/" style="
								fill-rule: evenodd;
								clip-rule: evenodd;
								stroke-linejoin: round;
								stroke-miterlimit: 2;
							">
    <path d="M36,5.5L36,30.5C36,33.53 33.53,36 30.5,36L25,36L25,22L28.62,22C29.13,22 29.56,21.62 29.62,21.12L29.99,18.12C30.03,17.84 29.94,17.55 29.75,17.34C29.56,17.12 29.29,17 29,17L25,17L25,13.5C25,12.4 25.9,11.5 27,11.5L29,11.5C29.55,11.5 30,11.05 30,10.5L30,7.12C30,6.61 29.6,6.18 29.09,6.13C29.03,6.12 27.62,6 25.83,6C21.43,6 19,8.62 19,13.37L19,17L15,17C14.45,17 14,17.45 14,18L14,21C14,21.55 14.45,22 15,22L19,22L19,36L5.5,36C2.47,36 0,33.53 0,30.5L0,5.5C0,2.47 2.47,0 5.5,0L30.5,0C33.53,0 36,2.47 36,5.5Z" />
</svg>