<svg viewBox="0 0 36 36" version="1.1"
    xmlns="http://www.w3.org/2000/svg"
    xmlns:xlink="http://www.w3.org/1999/xlink" xml:space="preserve"
    xmlns:serif="http://www.serif.com/" style="			fill-rule: evenodd;			clip-rule: evenodd;			stroke-linejoin: round;			stroke-miterlimit: 2;		">
    <path d="M36,5.5L36,30.5C36,33.53 33.53,36 30.5,36L5.5,36C2.47,36 0,33.53 0,30.5L0,5.5C0,2.47 2.47,0 5.5,0L30.5,0C33.53,0 36,2.47 36,5.5ZM18,8.526C23.229,8.526 27.474,12.771 27.474,18C27.474,23.229 23.229,27.474 18,27.474C12.771,27.474 8.526,23.229 8.526,18C8.526,12.771 12.771,8.526 18,8.526ZM27.474,6.632C28.519,6.632 29.368,7.481 29.368,8.526C29.368,9.572 28.519,10.421 27.474,10.421C26.428,10.421 25.579,9.572 25.579,8.526C25.579,7.481 26.428,6.632 27.474,6.632Z" />
    <g transform="matrix(1.32632,0,0,1.32632,-5.87368,-5.87368)">
        <circle cx="18" cy="18" r="5" />
    </g>
</svg>